# xmcd
#
# Track frame offsets: 
#        150
#        25053
#        47381
#        58267
#        82066
#        95328
#
# Disc length: 1569 seconds
#
# Revision: 2
# Processed by: cddbd v1.5.2PL0 Copyright (c) Steve Scherf et al.
# Submitted via: ExactAudioCopy v0.99pb4
#
DISCID=43061f06
DTITLE=Robert Cray - The Ultimate Collection [CD3]
DYEAR=2004
DGENRE=blues
TTITLE0=The Dream
TTITLE1=T-Bone Shuffle
TTITLE2=Brown Eyed Handsome Man (live)
TTITLE3=Playin' With My Friends
TTITLE4=Love Struck Baby (live)
TTITLE5=I Pity The Fool (live)
EXTD=
EXTT0=
EXTT1=
EXTT2=
EXTT3=
EXTT4=
EXTT5=
PLAYORDER=
